<svg xmlns="http://www.w3.org/2000/svg" width="363" height="272" viewBox="0 0 363 272">
  <defs>
    <linearGradient id="interface-preview-a" x1="55.91%" x2="64.677%" y1="39.645%" y2="66.309%">
      <stop offset="0%" stop-color="#240A49"/>
      <stop offset="100%" stop-color="#352054"/>
    </linearGradient>
    <filter id="interface-preview-b" width="255.1%" height="235.5%" x="-77.3%" y="-67.8%" filterUnits="objectBoundingBox">
      <feOffset dx="-29" dy="7" in="SourceAlpha" result="shadowOffsetOuter1"/>
      <feGaussianBlur in="shadowOffsetOuter1" result="shadowBlurOuter1" stdDeviation="11"/>
      <feColorMatrix in="shadowBlurOuter1" result="shadowMatrixOuter1" values="0 0 0 0 0   0 0 0 0 0   0 0 0 0 0  0 0 0 0.12 0"/>
      <feMerge>
        <feMergeNode in="shadowMatrixOuter1"/>
        <feMergeNode in="SourceGraphic"/>
      </feMerge>
    </filter>
    <linearGradient id="interface-preview-c" x1="78.294%" x2="78.294%" y1="85.49%" y2="6.904%">
      <stop offset="0%" stop-color="#4E2E62"/>
      <stop offset="100%" stop-color="#42348E"/>
    </linearGradient>
    <linearGradient id="interface-preview-d" x1="78.294%" x2="78.294%" y1="91.722%" y2="2.615%">
      <stop offset="0%" stop-color="#884FAC"/>
      <stop offset="100%" stop-color="#644FD9"/>
    </linearGradient>
  </defs>
  <g fill="none" fill-rule="evenodd" transform="translate(.87 .737)">
    <path fill="url(#interface-preview-a)" d="M347.730519,154.258615 L152.486218,263.633771 L152.486218,263.633771 C137.048204,272.611035 111.951638,272.616013 96.4029355,263.633771 L11.7129153,210.771463 C-3.82708151,201.796688 -3.91662771,187.239433 11.5201422,178.262169 L38.6128425,162.510269 C47.5768095,157.298107 101.409456,127.992879 200.110783,74.5945841 C229.285577,58.810761 264.502912,59.0295469 293.47935,75.1746313 L347.674322,105.370973 C361.182942,112.897702 366.032222,129.950222 358.505492,143.458841 C355.98267,147.986684 352.25255,151.72539 347.730519,154.258615 Z" opacity=".6"/>
    <g transform="translate(75.362)">
      <g fill="#341D55">
        <polygon points=".21 196.61 .216 199.138 46.881 172.178 47.043 229.576 .381 256.536 .387 259.092 49.255 230.861 49.078 168.379"/>
        <polygon points="0 123.103 .009 125.634 46.671 98.678 46.836 156.073 .171 183.032 .177 185.563 49.046 157.332 48.872 94.872"/>
        <path d="M151.748926 169.090594L151.587326 111.695645 61.9428338 163.481076 62.1044338 220.876025 151.748926 169.090594 151.748926 169.090594zM59.7332646 162.221733L153.781357 107.889631 153.958495 170.374813 59.9104031 224.706915 59.7332646 162.221733zM151.539468 95.5863153L151.377868 38.1913664 61.7364831 89.9767971 61.8949754 147.371746 151.539468 95.5863153 151.539468 95.5863153zM59.5238062 88.717454L153.571898 34.3853518 153.752145 96.8456584 59.7009446 151.177761 59.5238062 88.717454z"/>
        <polygon points="164.437 101.736 164.614 164.218 213.482 135.987 213.476 133.431 166.83 160.378 166.665 102.983 213.314 76.036 213.305 73.505"/>
        <polygon points="213.098 .001 164.226 28.232 164.406 90.689 213.275 62.458 213.268 59.927 166.619 86.877 166.46 29.485 213.104 2.532"/>
      </g>
      <g filter="url(#interface-preview-b)" transform="translate(72.254 40.423)">
        <path fill="url(#interface-preview-c)" d="M107.565932,45.8522146 C107.551948,46.7290905 107.547286,47.6059664 107.526309,48.4875066 C107.500671,49.5556161 107.451725,50.6260577 107.412102,51.6988314 C107.37714,52.5360613 107.353832,53.3732912 107.311878,54.2128533 C107.251278,55.4068971 107.169702,56.5962766 107.090455,57.7903204 C107.041509,58.5039482 107.006548,59.2175759 106.950609,59.9265394 C106.808432,61.8272146 106.642948,63.7138971 106.449494,65.5865869 C106.330625,66.3188715 106.167471,67.0511562 105.976348,67.7717803 C105.915748,68.0073241 105.834171,68.2382036 105.764248,68.4690832 C105.617409,68.9588277 105.470571,69.4485723 105.291102,69.9289883 C105.209525,70.1528715 105.113963,70.3720905 105.025394,70.5913095 C104.843594,71.0507365 104.647809,71.500835 104.43804,71.9462693 C104.319171,72.1934737 104.200302,72.4360139 104.07444,72.678554 C103.857678,73.1006672 103.629263,73.5134518 103.386863,73.9215723 C103.251678,74.1524518 103.121155,74.3809993 102.976648,74.6072146 C102.685302,75.0666416 102.375309,75.5167401 102.058325,75.9551781 C101.948778,76.1044336 101.850886,76.2583533 101.739009,76.4076088 C101.643448,76.5312109 101.531571,76.6478168 101.433678,76.7737511 C100.883617,77.4687219 100.293932,78.1287109 99.6739477,78.7583825 C99.4851554,78.9519482 99.2940323,79.1431818 99.0982477,79.3297511 C98.3593938,80.0340504 97.5949015,80.7057 96.7744708,81.3027219 C84.8269477,89.2669007 72.3456785,97.0258533 59.6662938,104.351032 C46.98924,111.676211 34.5149631,118.332072 22.5767631,124.164696 C22.0733169,124.379251 21.6001708,124.514514 21.1270246,124.654441 C21.1083785,124.577481 21.0780785,124.514514 21.0617631,124.435222 C19.3975938,110.967247 19.3509785,94.5071672 20.93124,79.1618387 C21.9451246,72.977065 25.5345092,67.1304482 30.6039323,63.4480358 C42.5374708,55.4745285 55.0210708,47.7319007 67.7004554,40.4067219 C80.37984,33.0815431 92.8517862,26.4093569 104.789986,20.5930577 C105.295763,20.3761708 105.775902,20.2269153 106.25604,20.0869883 C106.272355,20.1662803 106.304986,20.2339117 106.321302,20.3155358 C106.463478,21.4862584 106.582348,22.7036234 106.701217,23.9163241 C106.782794,24.7232365 106.86204,25.532481 106.934294,26.3603825 C107.008878,27.2722401 107.071809,28.207419 107.13474,29.1402657 C107.193009,29.9821599 107.251278,30.824054 107.300225,31.682273 C107.349171,32.6314445 107.386463,33.5946088 107.423755,34.5601051 C107.458717,35.4276526 107.49834,36.2928679 107.519317,37.174408 C107.544955,38.1538971 107.556609,39.1473788 107.568263,40.1385285 C107.579917,41.0224007 107.596431,41.9016088 107.596431,42.7924774 C107.598563,43.8069482 107.579917,44.8307474 107.565932,45.8522146 M125.986002,16.5235139 L125.927732,16.127054 C124.969786,11.1783022 122.713602,7.78274015 119.478494,6.06630219 C119.597363,6.13160146 119.727886,6.17591168 119.844425,6.24587518 L111.628463,1.4697 C108.07404,-0.598887591 103.254009,-0.521927737 97.5925708,1.94778394 C85.3140785,7.92499927 72.4692092,14.7977474 59.4472015,22.3188241 C46.4298554,29.8422328 33.5873169,37.8087438 21.0757477,46.1857073 C19.9290092,47.0066124 18.8312169,47.9138058 17.7544015,48.855981 C17.4514015,49.1218423 17.1577246,49.3970321 16.8593862,49.6722219 C16.0203092,50.4488168 15.20454,51.2557292 14.41674,52.0999555 C14.1953169,52.3331672 13.9669015,52.5593825 13.75014,52.7995905 C12.8830938,53.7627547 12.0440169,54.7515723 11.2492246,55.7870321 C11.1676477,55.8943095 11.0977246,56.0062511 11.0161477,56.1135285 C10.7481092,56.4703423 10.5033785,56.8411489 10.2446631,57.2049591 C9.62001692,58.0771708 9.01168615,58.9633752 8.44064769,59.8752328 C8.15163231,60.3346599 7.87893231,60.8010832 7.60623231,61.2675066 C7.10045538,62.135054 6.61798615,63.0119299 6.16348615,63.9051307 C5.91642462,64.3902109 5.67169385,64.870627 5.44094769,65.3627036 C4.98411692,66.3282 4.57157077,67.3076891 4.18000154,68.2988387 C4.00985538,68.7186197 3.82805538,69.1314044 3.67189385,69.5558496 C3.62061692,69.6957766 3.55535538,69.8310394 3.50640923,69.9709664 C3.19641692,70.8385139 2.95867846,71.7247182 2.70229385,72.6039263 C2.55778615,73.0890066 2.38530923,73.5694226 2.25711692,74.056835 C1.86554769,75.5610504 1.54390154,77.0769263 1.31082462,78.5951343 L1.25488615,79.0568934 C1.04278615,81.0881672 0.860986154,83.142762 0.702493846,85.2043533 C0.648886154,85.9016562 0.613924615,86.6036234 0.56964,87.2985942 C0.474078462,88.6698788 0.380847692,90.0388314 0.308593846,91.4124482 C0.268970769,92.2590066 0.243332308,93.105565 0.208370769,93.9521234 C0.159424615,95.1788168 0.108147692,96.4055102 0.0778476923,97.6298715 C0.05454,98.5393971 0.0498784615,99.4419263 0.0358938462,100.346788 C0.0195784615,101.503518 0.000932307692,102.660247 0.000932307692,103.809981 C0.000932307692,104.747492 0.0172476923,105.668678 0.0289015385,106.601525 C0.0428861538,107.702284 0.05454,108.807707 0.0825092308,109.90147 C0.108147692,110.841313 0.150101538,111.764831 0.187393846,112.695346 C0.227016923,113.754127 0.268970769,114.812908 0.322578462,115.857696 C0.373855385,116.783547 0.436786154,117.688408 0.499716923,118.600266 C0.56964,119.619401 0.639563077,120.631539 0.723470769,121.629685 C0.795724615,122.525218 0.884293846,123.39743 0.972863077,124.274306 C1.03346308,124.889985 1.07774769,125.52432 1.14767077,126.130671 C1.22458615,126.837302 1.30616308,127.534605 1.39240154,128.227244 L1.45533231,128.605047 C1.61382462,129.43528 1.82126308,130.202547 2.04967846,130.94416 C2.10328615,131.114404 2.15689385,131.282317 2.21283231,131.447897 C2.45290154,132.159193 2.72327077,132.835507 3.02627077,133.460514 C3.06589385,133.537474 3.11017846,133.605105 3.14747077,133.679733 C3.43415538,134.239441 3.75114,134.761835 4.09143231,135.249247 C4.17534,135.365853 4.25225538,135.487123 4.33616308,135.599065 C4.71840923,136.109799 5.12862462,136.583218 5.56914,137.007664 C5.59477846,137.030985 5.61575538,137.061302 5.64139385,137.086955 C5.68567846,137.128934 5.73928615,137.152255 5.78590154,137.194233 C6.32897077,137.690974 6.90467077,138.13874 7.53397846,138.504882 L15.7452785,143.278726 C15.6963323,143.25074 15.6543785,143.204098 15.6031015,143.171448 C19.17384,145.33332 24.0474785,145.296007 29.8021477,142.779653 C42.0666554,136.807101 54.8812246,129.969335 67.9172169,122.43893 C80.9392246,114.915521 93.7794323,106.932685 106.321302,98.558054 C116.569694,91.1815686 124.135371,78.7723752 126.067578,66.1556234 L126.125848,65.6938642 C127.852948,49.0332219 127.801671,31.1202328 125.986002,16.5235139 M46.6200462,60.7672675 L46.7132769,94.1328624 L54.9269077,98.9067055 L80.7122077,67.3018588 L72.5009077,62.5256836 L46.6200462,60.7672675 Z"/>
        <path fill="url(#interface-preview-d)" d="M114.662892,70.3643945 C113.665322,76.5258471 110.059622,82.3771281 104.990199,86.0781974 C93.0426762,94.0423763 80.5590762,101.801329 67.8796915,109.126508 C55.2003069,116.451686 42.7306915,123.107548 30.7924915,128.940172 C25.7160762,131.104376 22.0870685,129.427584 21.06153,124.436854 C19.3973608,110.966548 19.3507454,94.5087996 20.9310069,79.1611391 C21.9448915,72.9763653 25.5342762,67.1297485 30.60603,63.4473361 C42.5372377,55.4738288 55.0208377,47.7312011 67.7025531,40.4060223 C80.3796069,33.0831755 92.8515531,26.4086573 104.789753,20.592358 C109.877822,18.4234894 113.50683,20.0979493 114.532368,25.0910113 C116.196538,38.5426609 116.245484,55.0190661 114.662892,70.3643945 M125.985768,16.5228142 L125.927499,16.1263544 C123.93003,5.79740912 116.317738,2.14065 105.805968,6.72325949 C93.5274762,12.7028069 80.6849377,19.573223 67.66293,27.0942996 C54.6409223,34.6177084 41.7983838,42.5842193 29.2891454,50.9611828 C19.0244377,58.3306719 11.4587608,70.7561901 9.52655308,83.3706099 L9.46828385,83.832369 C7.73885308,100.476686 7.79013,118.408332 9.60579923,133.002719 L9.66873,133.380522 C11.6638685,143.746781 19.2761608,147.382551 29.8019146,142.778953 C42.0687531,136.806402 54.8833223,129.970968 67.9169838,122.43823 C80.9389915,114.917154 93.7791992,106.934318 106.321068,98.5573544 C116.569461,91.180869 124.135138,78.7716755 126.069676,66.1549237 L126.125615,65.6931646 C127.852715,49.0348544 127.801438,31.1195332 125.985768,16.5228142 M54.92784,98.9078715 L80.71314,67.3006927 L54.8322785,65.5422766 L54.92784,98.9078715 Z"/>
      </g>
    </g>
  </g>
</svg>
