<svg xmlns="http://www.w3.org/2000/svg" xmlns:xlink="http://www.w3.org/1999/xlink" width="46" height="48" viewBox="0 0 46 48">
  <defs>
    <radialGradient id="symbol-logo-a" cx="100%" cy="50%" r="142.831%" fx="100%" fy="50%" gradientTransform="matrix(-.95652 0 0 -1 1.957 1)">
      <stop offset="0%" stop-color="#F53568"/>
      <stop offset="100%" stop-color="#FD9369"/>
    </radialGradient>
    <path id="symbol-logo-b" d="M29.7840858,14.4439256 C35,17.4603871 35,17.4603871 35,23.8958497 C35,30.3313122 35,30.3313122 29.2328908,33.6735878 C23.4657815,37.0158634 23.8142833,36.5903062 18.4071417,33.4608092 C13,30.3313122 13,30.3313122 13,23.8958497 C13,17.4603871 13.5238095,17.4603871 18.7619048,14.2426559 C24,11.0249246 24.5681717,11.4274641 29.7840858,14.4439256 Z"/>
    <filter id="symbol-logo-c" width="263.6%" height="250%" x="-81.8%" y="-75%" filterUnits="objectBoundingBox">
      <feOffset in="SourceAlpha" result="shadowOffsetOuter1"/>
      <feGaussianBlur in="shadowOffsetOuter1" result="shadowBlurOuter1" stdDeviation="6"/>
      <feColorMatrix in="shadowBlurOuter1" values="0 0 0 0 0.0823529412   0 0 0 0 0.0352941176   0 0 0 0 0.145098039  0 0 0 0.263002622 0"/>
    </filter>
  </defs>
  <g fill="none" fill-rule="evenodd" transform="translate(-1)">
    <path fill="url(#symbol-logo-a)" d="M42.7015763,13.5238095 C48.8688945,24 48.0973605,25.1363433 42.3158092,35.5681717 C36.534258,46 36.534258,46 24.1996215,46 C11.8649849,46 11.8649849,46 5.45895675,34.4657815 C-0.947071426,22.9315631 -0.131420255,23.6285666 5.86678233,12.8142833 C11.6176364,2.44594983 11.854785,2.01838968 22.7353266,2.00075834 L24.1996215,2 C36.534258,2 36.534258,3.04761905 42.7015763,13.5238095 Z M24.5287887,6.00038526 L22.8077223,6.00089029 C13.9647029,6.01914127 13.7449555,6.41153721 9.0203854,14.84805 C4.06534849,23.6961 3.39154969,23.1258244 8.68348601,32.5629122 C13.9754223,42 13.9754223,42 24.1649047,42 C34.354387,42 34.354387,42 39.1304511,33.4648677 C43.9065152,24.9297354 44.5438694,24 39.4491282,15.4285714 C34.354387,6.85714286 34.354387,6 24.1649047,6 Z"/>
    <mask id="symbol-logo-d" fill="#fff">
      <use xlink:href="#symbol-logo-b"/>
    </mask>
    <use fill="#000" filter="url(#symbol-logo-c)" xlink:href="#symbol-logo-b"/>
    <use fill="#D3B7FB" xlink:href="#symbol-logo-b"/>
    <polygon fill="#B280F9" points="24 37 24 23.5 12.5 17.5 12.5 30.5" mask="url(#symbol-logo-d)" opacity=".402"/>
    <polygon fill="#B280F9" points="24 37 24 23.5 35.5 17.5 35.5 30.5" mask="url(#symbol-logo-d)" opacity=".743"/>
    <path fill="#CCA7FF" d="M22,22.5 C23,22.8333333 23.6666667,23 24,23 C24.3333333,23 25,22.8333333 26,22.5 C25.351489,22.8848942 24.851489,23.3848942 24.5,24 C24.148511,24.6151058 23.9818443,25.2817724 24,26 C24.0317461,25.3055557 23.8650794,24.638889 23.5,24 C23.1349206,23.361111 22.6349206,22.861111 22,22.5 Z" mask="url(#symbol-logo-d)"/>
  </g>
</svg>
