<svg xmlns="http://www.w3.org/2000/svg" xmlns:xlink="http://www.w3.org/1999/xlink" width="36" height="36" viewBox="0 0 36 36">
  <defs>
    <radialGradient id="block-explorer-a" cx="100%" cy="50%" r="142.831%" fx="100%" fy="50%" gradientTransform="matrix(-.95652 0 0 -1 1.957 1)">
      <stop offset="0%" stop-color="#F53568"/>
      <stop offset="100%" stop-color="#FD9369"/>
    </radialGradient>
    <path id="block-explorer-b" d="M22.3380644,9.83294422 C26.25,12.0952903 26.25,12.0952903 26.25,16.9218873 C26.25,21.7484842 26.25,21.7484842 21.9246681,24.2551908 C17.5993362,26.7618975 17.8607125,26.4427297 13.8053562,24.0956069 C9.75,21.7484842 9.75,21.7484842 9.75,16.9218873 C9.75,12.0952903 10.1428571,12.0952903 14.0714286,9.6819919 C18,7.26869344 18.4261287,7.57059808 22.3380644,9.83294422 Z"/>
    <filter id="block-explorer-c" width="263.6%" height="250%" x="-81.8%" y="-75%" filterUnits="objectBoundingBox">
      <feOffset in="SourceAlpha" result="shadowOffsetOuter1"/>
      <feGaussianBlur in="shadowOffsetOuter1" result="shadowBlurOuter1" stdDeviation="4.5"/>
      <feColorMatrix in="shadowBlurOuter1" values="0 0 0 0 0.0823529412   0 0 0 0 0.0352941176   0 0 0 0 0.145098039  0 0 0 0.263002622 0"/>
    </filter>
  </defs>
  <g fill="none" fill-rule="evenodd" transform="translate(0 1)">
    <path fill="url(#block-explorer-a)" d="M32.0261822,9.14285714 C36.6516709,17 36.0730203,17.8522575 31.7368569,25.6761287 C27.4006935,33.5 27.4006935,33.5 18.1497161,33.5 C8.89873869,33.5 8.89873869,33.5 4.09421756,24.8493362 C-0.710303569,16.1986723 -0.098565191,16.721425 4.40008675,8.61071249 C8.7279038,0.80800174 8.89225129,0.511696269 17.1350762,0.500444162 L18.1497161,0.5 C27.4006935,0.5 27.4006935,1.28571429 32.0261822,9.14285714 Z M18.4710068,3.50047519 L17.1420716,3.50059573 C10.474116,3.5133046 10.3151662,3.79713601 6.76528905,10.1360375 C3.04901136,16.772075 2.54366227,16.3443683 6.51261451,23.4221841 C10.4815667,30.5 10.4815667,30.5 18.1236785,30.5 C25.7657903,30.5 25.7657903,30.5 29.3478383,24.0986508 C32.9298864,17.6973016 33.4079021,17 29.5868462,10.5714286 C25.7657903,4.14285714 25.7657903,3.5 18.1236785,3.5 Z"/>
    <mask id="block-explorer-d" fill="#fff">
      <use xlink:href="#block-explorer-b"/>
    </mask>
    <use fill="#000" filter="url(#block-explorer-c)" xlink:href="#block-explorer-b"/>
    <use fill="#D3B7FB" xlink:href="#block-explorer-b"/>
    <polygon fill="#B280F9" points="18 26.75 18 16.625 9.375 12.125 9.375 21.875" mask="url(#block-explorer-d)" opacity=".402"/>
    <polygon fill="#B280F9" points="18 26.75 18 16.625 26.625 12.125 26.625 21.875" mask="url(#block-explorer-d)" opacity=".743"/>
    <path fill="#CCA7FF" d="M16.5,15.875 C17.25,16.125 17.75,16.25 18,16.25 C18.25,16.25 18.75,16.125 19.5,15.875 C19.0136168,16.1636707 18.6386168,16.5386707 18.375,17 C18.1113832,17.4613293 17.9863832,17.9613293 18,18.5 C18.0238096,17.9791667 17.8988096,17.4791667 17.625,17 C17.3511904,16.5208333 16.9761904,16.1458333 16.5,15.875 Z" mask="url(#block-explorer-d)"/>
  </g>
</svg>
